<svg width="1728" height="82" viewBox="0 0 1728 82" fill="none" xmlns="http://www.w3.org/2000/svg">
<g clip-path="url(#clip0_118_244)">
<path d="M352 112C352 63.3989 312.601 24 264 24C215.399 24 176 63.3989 176 112C176 160.601 215.399 200 264 200C312.601 200 352 160.601 352 112Z" fill="white"/>
<path d="M456 -30C456 18.6011 416.601 58 368 58C319.399 58 280 18.6011 280 -30C280 -78.6011 319.399 -118 368 -118C416.601 -118 456 -78.6011 456 -30Z" fill="#F0F9FF"/>
<path d="M145 112C145 63.3989 105.601 24 57 24C8.39894 24 -31 63.3989 -31 112C-31 160.601 8.39894 200 57 200C105.601 200 145 160.601 145 112Z" fill="white"/>
<path d="M249 -30C249 18.6011 209.601 58 161 58C112.399 58 73 18.6011 73 -30C73 -78.6011 112.399 -118 161 -118C209.601 -118 249 -78.6011 249 -30Z" fill="#F0F9FF"/>
<path d="M766 112C766 63.3989 726.601 24 678 24C629.399 24 590 63.3989 590 112C590 160.601 629.399 200 678 200C726.601 200 766 160.601 766 112Z" fill="white"/>
<path d="M870 -30C870 18.6011 830.601 58 782 58C733.399 58 694 18.6011 694 -30C694 -78.6011 733.399 -118 782 -118C830.601 -118 870 -78.6011 870 -30Z" fill="#F0F9FF"/>
<path d="M559 112C559 63.3989 519.601 24 471 24C422.399 24 383 63.3989 383 112C383 160.601 422.399 200 471 200C519.601 200 559 160.601 559 112Z" fill="white"/>
<path d="M663 -30C663 18.6011 623.601 58 575 58C526.399 58 487 18.6011 487 -30C487 -78.6011 526.399 -118 575 -118C623.601 -118 663 -78.6011 663 -30Z" fill="#F0F9FF"/>
<path d="M1180 112C1180 63.3989 1140.6 24 1092 24C1043.4 24 1004 63.3989 1004 112C1004 160.601 1043.4 200 1092 200C1140.6 200 1180 160.601 1180 112Z" fill="white"/>
<path d="M1284 -30C1284 18.6011 1244.6 58 1196 58C1147.4 58 1108 18.6011 1108 -30C1108 -78.6011 1147.4 -118 1196 -118C1244.6 -118 1284 -78.6011 1284 -30Z" fill="#F0F9FF"/>
<path d="M973 112C973 63.3989 933.601 24 885 24C836.399 24 797 63.3989 797 112C797 160.601 836.399 200 885 200C933.601 200 973 160.601 973 112Z" fill="white"/>
<path d="M1077 -30C1077 18.6011 1037.6 58 989 58C940.399 58 901 18.6011 901 -30C901 -78.6011 940.399 -118 989 -118C1037.6 -118 1077 -78.6011 1077 -30Z" fill="#F0F9FF"/>
<path d="M1180 112C1180 63.3989 1140.6 24 1092 24C1043.4 24 1004 63.3989 1004 112C1004 160.601 1043.4 200 1092 200C1140.6 200 1180 160.601 1180 112Z" fill="white"/>
<path d="M1284 -30C1284 18.6011 1244.6 58 1196 58C1147.4 58 1108 18.6011 1108 -30C1108 -78.6011 1147.4 -118 1196 -118C1244.6 -118 1284 -78.6011 1284 -30Z" fill="#F0F9FF"/>
<path d="M973 112C973 63.3989 933.601 24 885 24C836.399 24 797 63.3989 797 112C797 160.601 836.399 200 885 200C933.601 200 973 160.601 973 112Z" fill="white"/>
<path d="M1077 -30C1077 18.6011 1037.6 58 989 58C940.399 58 901 18.6011 901 -30C901 -78.6011 940.399 -118 989 -118C1037.6 -118 1077 -78.6011 1077 -30Z" fill="#F0F9FF"/>
<path d="M1596 112C1596 63.3989 1556.6 24 1508 24C1459.4 24 1420 63.3989 1420 112C1420 160.601 1459.4 200 1508 200C1556.6 200 1596 160.601 1596 112Z" fill="white"/>
<path d="M1700 -30C1700 18.6011 1660.6 58 1612 58C1563.4 58 1524 18.6011 1524 -30C1524 -78.6011 1563.4 -118 1612 -118C1660.6 -118 1700 -78.6011 1700 -30Z" fill="#F0F9FF"/>
<path d="M1389 112C1389 63.3989 1349.6 24 1301 24C1252.4 24 1213 63.3989 1213 112C1213 160.601 1252.4 200 1301 200C1349.6 200 1389 160.601 1389 112Z" fill="white"/>
<path d="M1493 -30C1493 18.6011 1453.6 58 1405 58C1356.4 58 1317 18.6011 1317 -30C1317 -78.6011 1356.4 -118 1405 -118C1453.6 -118 1493 -78.6011 1493 -30Z" fill="#F0F9FF"/>
<path d="M1804 112C1804 63.3989 1764.6 24 1716 24C1667.4 24 1628 63.3989 1628 112C1628 160.601 1667.4 200 1716 200C1764.6 200 1804 160.601 1804 112Z" fill="white"/>
</g>
<defs>
<clipPath id="clip0_118_244">
<rect width="1855" height="82" fill="white" transform="translate(-41)"/>
</clipPath>
</defs>
</svg>
