<svg width="1728" height="82" viewBox="0 0 1728 82" fill="none" xmlns="http://www.w3.org/2000/svg">
<g clip-path="url(#clip0_118_276)">
<path d="M366 -30C366 18.6011 326.601 58 278 58C229.399 58 190 18.6011 190 -30C190 -78.6011 229.399 -118 278 -118C326.601 -118 366 -78.6011 366 -30Z" fill="white"/>
<path d="M470 112C470 63.3989 430.601 24 382 24C333.399 24 294 63.3989 294 112C294 160.601 333.399 200 382 200C430.601 200 470 160.601 470 112Z" fill="#F0F9FF"/>
<path d="M159 -30C159 18.6011 119.601 58 71 58C22.3989 58 -17 18.6011 -17 -30C-17 -78.6011 22.3989 -118 71 -118C119.601 -118 159 -78.6011 159 -30Z" fill="white"/>
<path d="M263 112C263 63.3989 223.601 24 175 24C126.399 24 87 63.3989 87 112C87 160.601 126.399 200 175 200C223.601 200 263 160.601 263 112Z" fill="#F0F9FF"/>
<path d="M780 -30C780 18.6011 740.601 58 692 58C643.399 58 604 18.6011 604 -30C604 -78.6011 643.399 -118 692 -118C740.601 -118 780 -78.6011 780 -30Z" fill="white"/>
<path d="M884 112C884 63.3989 844.601 24 796 24C747.399 24 708 63.3989 708 112C708 160.601 747.399 200 796 200C844.601 200 884 160.601 884 112Z" fill="#F0F9FF"/>
<path d="M573 -30C573 18.6011 533.601 58 485 58C436.399 58 397 18.6011 397 -30C397 -78.6011 436.399 -118 485 -118C533.601 -118 573 -78.6011 573 -30Z" fill="white"/>
<path d="M677 112C677 63.3989 637.601 24 589 24C540.399 24 501 63.3989 501 112C501 160.601 540.399 200 589 200C637.601 200 677 160.601 677 112Z" fill="#F0F9FF"/>
<path d="M1194 -30C1194 18.6011 1154.6 58 1106 58C1057.4 58 1018 18.6011 1018 -30C1018 -78.6011 1057.4 -118 1106 -118C1154.6 -118 1194 -78.6011 1194 -30Z" fill="white"/>
<path d="M1298 112C1298 63.3989 1258.6 24 1210 24C1161.4 24 1122 63.3989 1122 112C1122 160.601 1161.4 200 1210 200C1258.6 200 1298 160.601 1298 112Z" fill="#F0F9FF"/>
<path d="M987 -30C987 18.6011 947.601 58 899 58C850.399 58 811 18.6011 811 -30C811 -78.6011 850.399 -118 899 -118C947.601 -118 987 -78.6011 987 -30Z" fill="white"/>
<path d="M1091 112C1091 63.3989 1051.6 24 1003 24C954.399 24 915 63.3989 915 112C915 160.601 954.399 200 1003 200C1051.6 200 1091 160.601 1091 112Z" fill="#F0F9FF"/>
<path d="M1194 -30C1194 18.6011 1154.6 58 1106 58C1057.4 58 1018 18.6011 1018 -30C1018 -78.6011 1057.4 -118 1106 -118C1154.6 -118 1194 -78.6011 1194 -30Z" fill="white"/>
<path d="M1298 112C1298 63.3989 1258.6 24 1210 24C1161.4 24 1122 63.3989 1122 112C1122 160.601 1161.4 200 1210 200C1258.6 200 1298 160.601 1298 112Z" fill="#F0F9FF"/>
<path d="M987 -30C987 18.6011 947.601 58 899 58C850.399 58 811 18.6011 811 -30C811 -78.6011 850.399 -118 899 -118C947.601 -118 987 -78.6011 987 -30Z" fill="white"/>
<path d="M1091 112C1091 63.3989 1051.6 24 1003 24C954.399 24 915 63.3989 915 112C915 160.601 954.399 200 1003 200C1051.6 200 1091 160.601 1091 112Z" fill="#F0F9FF"/>
<path d="M1610 -30C1610 18.6011 1570.6 58 1522 58C1473.4 58 1434 18.6011 1434 -30C1434 -78.6011 1473.4 -118 1522 -118C1570.6 -118 1610 -78.6011 1610 -30Z" fill="white"/>
<path d="M1714 112C1714 63.3989 1674.6 24 1626 24C1577.4 24 1538 63.3989 1538 112C1538 160.601 1577.4 200 1626 200C1674.6 200 1714 160.601 1714 112Z" fill="#F0F9FF"/>
<path d="M1403 -30C1403 18.6011 1363.6 58 1315 58C1266.4 58 1227 18.6011 1227 -30C1227 -78.6011 1266.4 -118 1315 -118C1363.6 -118 1403 -78.6011 1403 -30Z" fill="white"/>
<path d="M1507 112C1507 63.3989 1467.6 24 1419 24C1370.4 24 1331 63.3989 1331 112C1331 160.601 1370.4 200 1419 200C1467.6 200 1507 160.601 1507 112Z" fill="#F0F9FF"/>
<path d="M1818 -30C1818 18.6011 1778.6 58 1730 58C1681.4 58 1642 18.6011 1642 -30C1642 -78.6011 1681.4 -118 1730 -118C1778.6 -118 1818 -78.6011 1818 -30Z" fill="white"/>
</g>
<defs>
<clipPath id="clip0_118_276">
<rect width="1855" height="82" fill="white" transform="matrix(1 0 0 -1 -27 82)"/>
</clipPath>
</defs>
</svg>
