<svg width="1728" height="82" viewBox="0 0 1728 82" fill="none" xmlns="http://www.w3.org/2000/svg">
<g clip-path="url(#clip0_170_70)">
<path d="M1451 -30C1451 18.6011 1490.4 58 1539 58C1587.6 58 1627 18.6011 1627 -30C1627 -78.6011 1587.6 -118 1539 -118C1490.4 -118 1451 -78.6011 1451 -30Z" fill="white"/>
<path d="M1347 112C1347 63.3989 1386.4 24 1435 24C1483.6 24 1523 63.3989 1523 112C1523 160.601 1483.6 200 1435 200C1386.4 200 1347 160.601 1347 112Z" fill="#0870C5"/>
<path d="M1658 -30C1658 18.6011 1697.4 58 1746 58C1794.6 58 1834 18.6011 1834 -30C1834 -78.6011 1794.6 -118 1746 -118C1697.4 -118 1658 -78.6011 1658 -30Z" fill="white"/>
<path d="M1554 112C1554 63.3989 1593.4 24 1642 24C1690.6 24 1730 63.3989 1730 112C1730 160.601 1690.6 200 1642 200C1593.4 200 1554 160.601 1554 112Z" fill="#0870C5"/>
<path d="M1037 -30C1037 18.6011 1076.4 58 1125 58C1173.6 58 1213 18.6011 1213 -30C1213 -78.6011 1173.6 -118 1125 -118C1076.4 -118 1037 -78.6011 1037 -30Z" fill="white"/>
<path d="M933 112C933 63.3989 972.399 24 1021 24C1069.6 24 1109 63.3989 1109 112C1109 160.601 1069.6 200 1021 200C972.399 200 933 160.601 933 112Z" fill="#0870C5"/>
<path d="M1244 -30C1244 18.6011 1283.4 58 1332 58C1380.6 58 1420 18.6011 1420 -30C1420 -78.6011 1380.6 -118 1332 -118C1283.4 -118 1244 -78.6011 1244 -30Z" fill="white"/>
<path d="M1140 112C1140 63.3989 1179.4 24 1228 24C1276.6 24 1316 63.3989 1316 112C1316 160.601 1276.6 200 1228 200C1179.4 200 1140 160.601 1140 112Z" fill="#0870C5"/>
<path d="M623 -30C623 18.6011 662.399 58 711 58C759.601 58 799 18.6011 799 -30C799 -78.6011 759.601 -118 711 -118C662.399 -118 623 -78.6011 623 -30Z" fill="white"/>
<path d="M519 112C519 63.3989 558.399 24 607 24C655.601 24 695 63.3989 695 112C695 160.601 655.601 200 607 200C558.399 200 519 160.601 519 112Z" fill="#0870C5"/>
<path d="M830 -30C830 18.6011 869.399 58 918 58C966.601 58 1006 18.6011 1006 -30C1006 -78.6011 966.601 -118 918 -118C869.399 -118 830 -78.6011 830 -30Z" fill="white"/>
<path d="M726 112C726 63.3989 765.399 24 814 24C862.601 24 902 63.3989 902 112C902 160.601 862.601 200 814 200C765.399 200 726 160.601 726 112Z" fill="#0870C5"/>
<path d="M623 -30C623 18.6011 662.399 58 711 58C759.601 58 799 18.6011 799 -30C799 -78.6011 759.601 -118 711 -118C662.399 -118 623 -78.6011 623 -30Z" fill="white"/>
<path d="M519 112C519 63.3989 558.399 24 607 24C655.601 24 695 63.3989 695 112C695 160.601 655.601 200 607 200C558.399 200 519 160.601 519 112Z" fill="#0870C5"/>
<path d="M830 -30C830 18.6011 869.399 58 918 58C966.601 58 1006 18.6011 1006 -30C1006 -78.6011 966.601 -118 918 -118C869.399 -118 830 -78.6011 830 -30Z" fill="white"/>
<path d="M726 112C726 63.3989 765.399 24 814 24C862.601 24 902 63.3989 902 112C902 160.601 862.601 200 814 200C765.399 200 726 160.601 726 112Z" fill="#0870C5"/>
<path d="M207 -30C207 18.6011 246.399 58 295 58C343.601 58 383 18.6011 383 -30C383 -78.6011 343.601 -118 295 -118C246.399 -118 207 -78.6011 207 -30Z" fill="white"/>
<path d="M103 112C103 63.3989 142.399 24 191 24C239.601 24 279 63.3989 279 112C279 160.601 239.601 200 191 200C142.399 200 103 160.601 103 112Z" fill="#0870C5"/>
<path d="M414 -30C414 18.6011 453.399 58 502 58C550.601 58 590 18.6011 590 -30C590 -78.6011 550.601 -118 502 -118C453.399 -118 414 -78.6011 414 -30Z" fill="white"/>
<path d="M310 112C310 63.3989 349.399 24 398 24C446.601 24 486 63.3989 486 112C486 160.601 446.601 200 398 200C349.399 200 310 160.601 310 112Z" fill="#0870C5"/>
<path d="M-1 -30C-1 18.6011 38.3989 58 87 58C135.601 58 175 18.6011 175 -30C175 -78.6011 135.601 -118 87 -118C38.3989 -118 -1 -78.6011 -1 -30Z" fill="white"/>
</g>
<defs>
<clipPath id="clip0_170_70">
<rect width="1855" height="82" fill="white" transform="matrix(-1 0 0 -1 1844 82)"/>
</clipPath>
</defs>
</svg>
