<svg width="55" height="55" viewBox="0 0 55 55" fill="none" xmlns="http://www.w3.org/2000/svg">
<path fill-rule="evenodd" clip-rule="evenodd" d="M20.449 1.63648C22.9021 2.43399 25.2651 3.48599 27.4993 4.7753C29.7336 3.48599 32.0965 2.43399 34.5497 1.63648C40.6951 -0.30574 46.8164 0.0400116 50.8843 4.10785C54.9522 8.17568 55.2979 14.3 53.3557 20.4423C52.5582 22.8955 51.5062 25.2584 50.2169 27.4926C51.5878 29.9069 52.6371 32.273 53.3557 34.543C55.2979 40.6853 54.9522 46.8096 50.8843 50.8774C46.8164 54.9453 40.6921 55.291 34.5497 53.3488C32.0965 52.5513 29.7336 51.4993 27.4993 50.21C25.2651 51.4993 22.9021 52.5513 20.449 53.3488C14.3066 55.288 8.18224 54.9453 4.11437 50.8774C0.0465025 46.8096 -0.296244 40.6853 1.64298 34.543C2.36155 32.27 3.41083 29.9069 4.78182 27.4926C3.49251 25.2584 2.4405 22.8955 1.64298 20.4423C-0.296244 14.297 0.0495092 8.17568 4.11437 4.10785C8.18224 0.0400116 14.3066 -0.30574 20.449 1.63648ZM46.4106 33.2321C44.6367 35.5712 42.5802 37.9223 40.2561 40.2494C38.0582 42.4555 35.7138 44.5106 33.2389 46.4007C34.3192 46.8938 35.3605 47.2987 36.3627 47.6154C41.4678 49.2269 44.8291 48.4271 46.633 46.6232C48.437 44.8223 49.2367 41.458 47.6252 36.3559C47.2854 35.2895 46.8797 34.2452 46.4106 33.2291V33.2321ZM8.58812 33.2321C8.1201 34.2473 7.71544 35.2906 7.37648 36.3559C5.76497 41.461 6.56471 44.8223 8.36864 46.6262C10.1696 48.4301 13.5339 49.2269 18.636 47.6154C19.6382 47.2987 20.6805 46.8938 21.7628 46.4007C19.2879 44.5106 16.9435 42.4555 14.7455 40.2494C12.5384 38.0516 10.4792 35.7071 8.58812 33.2321ZM27.4993 11.8587C24.4514 13.9687 21.6051 16.356 18.9968 18.9902C16.3626 21.5984 13.9753 24.4447 11.8653 27.4926C13.9734 30.5403 16.3587 33.3866 18.9908 35.9951C21.8861 38.8904 24.7514 41.2565 27.4993 43.1266C30.5473 41.0166 33.3936 38.6293 36.0019 35.9951C38.635 33.3867 41.0214 30.5404 43.1304 27.4926C41.0265 24.4418 38.6408 21.5952 36.0049 18.9902C33.3956 16.3559 30.5483 13.9685 27.4993 11.8587ZM27.4993 22.9828C28.6954 22.9828 29.8425 23.458 30.6883 24.3037C31.534 25.1495 32.0092 26.2966 32.0092 27.4926C32.0092 28.6887 31.534 29.8358 30.6883 30.6816C29.8425 31.5273 28.6954 32.0024 27.4993 32.0024C26.3033 32.0024 25.1562 31.5273 24.3104 30.6816C23.4647 29.8358 22.9895 28.6887 22.9895 27.4926C22.9895 26.2966 23.4647 25.1495 24.3104 24.3037C25.1562 23.458 26.3033 22.9828 27.4993 22.9828ZM8.36564 8.35908C6.5617 10.163 5.76497 13.5243 7.37648 18.6294C7.69317 19.6316 8.09805 20.6738 8.59113 21.7562C10.365 19.4111 12.4185 17.063 14.7455 14.7359C16.9425 12.5299 19.2859 10.4748 21.7598 8.58457C20.7447 8.11553 19.7014 7.70987 18.636 7.36993C13.5339 5.75843 10.1696 6.55817 8.36564 8.35908ZM36.3627 7.36993C35.3605 7.68662 34.3192 8.0915 33.2389 8.58457C35.578 10.3584 37.9291 12.4119 40.2561 14.7359C42.4633 16.9337 44.5195 19.2782 46.4106 21.7532C46.9036 20.6728 47.3075 19.6316 47.6222 18.6294C49.2367 13.5243 48.437 10.163 46.633 8.35908C44.8291 6.55516 41.4678 5.75843 36.3627 7.36993Z" fill="#3BD07A"/>
</svg>
