<svg width="51" height="51" viewBox="0 0 51 51" fill="none" xmlns="http://www.w3.org/2000/svg">
<path d="M12.75 0H7.65V7.76256H0V12.9376H7.65V20.7002H12.75V12.9376H20.4V7.76256H12.75V0ZM30.6 7.76256H51V12.9376H30.6V7.76256ZM30.6 33.6377H51V38.8128H30.6V33.6377ZM30.6 43.9878H51V49.1629H30.6V43.9878ZM16.0395 31.8006L10.2 37.7519L4.3605 31.8006L0.7395 35.4749L6.6045 41.4003L0.7395 47.3257L4.3605 51L10.2 45.0487L16.0395 51L19.6605 47.3257L13.7955 41.4003L19.6605 35.4749L16.0395 31.8006Z" fill="#3BD07A"/>
</svg>
