<svg width="71" height="25" viewBox="0 0 71 25" fill="none" xmlns="http://www.w3.org/2000/svg">
<path d="M71 8.5H65.0833V6.5H57.1944V18.5H65.0833V16.5H71V20.5C71 22.7 69.225 24.5 67.0556 24.5H55.2222C53.0528 24.5 51.2778 22.7 51.2778 20.5V4.5C51.2778 2.3 53.0528 0.5 55.2222 0.5H67.0556C69.225 0.5 71 2.3 71 4.5V8.5ZM19.7222 4.5V24.5H13.8056V18.5H5.91667V24.5H0V4.5C0 2.3 1.775 0.5 3.94444 0.5H15.7778C17.9472 0.5 19.7222 2.3 19.7222 4.5ZM13.8056 6.5H5.91667V12.5H13.8056V6.5ZM41.4167 12.5C43.5861 12.5 45.3611 14.3 45.3611 16.5V20.5C45.3611 22.7 43.5861 24.5 41.4167 24.5H25.6389V0.5H41.4167C43.5861 0.5 45.3611 2.3 45.3611 4.5V8.5C45.3611 10.7 43.5861 12.5 41.4167 12.5ZM31.5556 6.5V9.5H39.4444V6.5H31.5556ZM39.4444 15.5H31.5556V18.5H39.4444V15.5Z" fill="#3BD07A"/>
</svg>
