<svg width="53" height="71" viewBox="0 0 53 71" fill="none" xmlns="http://www.w3.org/2000/svg">
<path d="M25.5777 2.33584e-05C20.7233 -0.0126805 17.6928 5.15927 17.4346 8.72186L20.9571 10.896L24.8809 9.63908C24.8809 9.63908 24.7328 12.9539 24.0153 12.9162C20.2389 12.8977 12.2349 13.1764 6.90986 13.7514C6.42664 17.6577 6.11641 22.4596 6.3116 26.366L0 27.7813C0.804335 28.9129 4.20302 30.6053 8.1864 30.2563C9.34924 26.4624 11.2634 21.0573 11.0865 17.47C14.3681 18.1974 17.6711 18.7594 21.0653 18.583C21.6312 21.9198 21.611 25.0632 22.6114 28.1228C25.9336 29.043 29.2343 30.2747 32.042 31.2297C33.1864 27.1795 33.6916 23.106 34.2869 18.7573C34.2869 18.7573 46.3886 18.7541 46.9857 18.8396C47.5826 18.9253 46.8166 5.11204 46.8166 5.11204C49.8311 4.51825 51.1303 3.51539 52.6987 1.90679C49.5857 1.12424 47.1162 1.39729 44.2566 2.12201L43.1516 14.2648C40.0147 13.4147 34.3397 12.6651 29.6558 12.8125L29.0941 10.0012C30.6083 10.3571 32.7383 11.1604 34.0905 11.2839C34.9363 11.0417 34.6311 9.07712 34.5654 8.91093C31.8934 8.68002 32.3755 8.99432 31.6973 6.49003L34.0893 6.5129C32.9211 2.48564 28.9141 0.00854239 25.5777 2.33584e-05ZM23.3195 31.1655C23.0493 31.7712 22.6945 32.6053 22.269 33.6373C21.3779 35.7973 20.2242 38.6917 19.0837 41.586C17.3515 45.9816 16.3777 48.5178 15.6588 50.3796L37.8658 42.4752L31.5941 33.9696L23.3195 31.1655ZM38.7351 45.0723C36.4171 45.8719 34.1412 46.7858 31.8542 47.6691C33.1823 49.9042 34.2076 52.291 36.1608 54.2127C35.8259 56.9319 35.638 58.1712 36.4167 59.9011C37.8148 63.0075 43.7508 67.0023 43.7508 67.0023C43.5083 67.9841 42.441 69.9145 43.7508 71H52.5777C53.2927 70.166 52.9096 69.4543 52.7908 68.7133C45.8412 69.2799 43.0573 60.1222 40.3397 54.8972C40.3057 51.4967 39.6677 48.2475 38.7351 45.0723ZM21.9362 51.0522L13.761 53.9622C12.6664 55.3035 11.3182 55.8364 10.4054 57.1427C7.91327 60.7087 6.23874 66.3313 4.64899 68.8623C4.35128 69.5122 4.51131 70.5763 4.77699 71H14.9254C15.6078 71 14.8401 69.1189 14.8401 69.1189C11.9557 69.1705 10.393 68.7519 9.21171 67.3229C10.2752 63.4027 14.139 60.829 16.7164 57.3137C19.1014 55.7656 20.5526 53.1851 21.9362 51.0522Z" fill="#3BD07A"/>
</svg>
