<svg width="57" height="41" viewBox="0 0 57 41" fill="none" xmlns="http://www.w3.org/2000/svg">
<path d="M7.82872 35.5333C6.56798 35.5333 5.51614 35.1115 4.67321 34.2678C3.83029 33.4241 3.40791 32.3736 3.40609 31.1163V4.41434C3.40609 3.15701 3.82846 2.10649 4.67321 1.26281C5.51797 0.419117 6.56889 -0.00181633 7.82598 5.89081e-06H48.2482C49.5072 5.89081e-06 50.5581 0.420939 51.401 1.26281C52.2439 2.10467 52.6663 3.15518 52.6681 4.41434V31.119C52.6681 32.3763 52.2458 33.4259 51.401 34.2678C50.5563 35.1097 49.5044 35.5315 48.2455 35.5333H7.82872ZM0.0371094 41V38.2667H56.0371V41H0.0371094Z" fill="#3BD07A"/>
</svg>
